<svg xmlns="http://www.w3.org/2000/svg" viewBox="0 0 200 200">
  <defs>
    <style>
      .line { fill: none; stroke: #1a1a1a; stroke-width: 1.5; stroke-linecap: round; stroke-linejoin: round; }
      .fill { fill: #1a1a1a; }
      .text { font-family: 'Georgia', serif; fill: #1a1a1a; }
      .script { font-family: 'Brush Script MT', 'Segoe Script', cursive; fill: #1a1a1a; }
    </style>
  </defs>
  
  <!-- Outer circle -->
  <circle cx="100" cy="100" r="95" fill="#faf9f7" stroke="#1a1a1a" stroke-width="2"/>
  
  <!-- SOAP Banner -->
  <path d="M45 38 Q50 32 60 35 L140 35 Q150 32 155 38 L152 50 Q145 46 140 48 L60 48 Q55 46 48 50 Z" fill="#faf9f7" stroke="#1a1a1a" stroke-width="1.5"/>
  <path d="M60 35 Q100 28 140 35" fill="none" stroke="#1a1a1a" stroke-width="1"/>
  <text x="100" y="45" class="text" font-size="16" font-weight="bold" text-anchor="middle" letter-spacing="3">SOAP</text>
  
  <!-- Khan ribbon (left) -->
  <path d="M35 48 Q28 55 32 62 L48 58 Q52 52 48 48 Z" fill="#faf9f7" stroke="#1a1a1a" stroke-width="1.2"/>
  <text x="40" y="56" class="text" font-size="7" font-style="italic" text-anchor="middle">Khan</text>
  
  <!-- Shamman ribbon (right) -->
  <path d="M165 48 Q172 55 168 62 L152 58 Q148 52 152 48 Z" fill="#faf9f7" stroke="#1a1a1a" stroke-width="1.2"/>
  <text x="160" y="56" class="text" font-size="6" font-style="italic" text-anchor="middle">Shamman</text>
  
  <!-- Wooden bucket -->
  <ellipse cx="108" cy="68" rx="18" ry="8" fill="none" stroke="#1a1a1a" stroke-width="1.5"/>
  <path d="M90 68 L88 95 Q108 102 128 95 L126 68" fill="#faf9f7" stroke="#1a1a1a" stroke-width="1.5"/>
  <!-- Bucket lines (wood pattern) -->
  <line x1="92" y1="72" x2="90" y2="92" class="line" stroke-width="0.8"/>
  <line x1="100" y1="74" x2="99" y2="96" class="line" stroke-width="0.8"/>
  <line x1="108" y1="74" x2="108" y2="97" class="line" stroke-width="0.8"/>
  <line x1="116" y1="74" x2="117" y2="96" class="line" stroke-width="0.8"/>
  <line x1="124" y1="72" x2="126" y2="92" class="line" stroke-width="0.8"/>
  <!-- Bucket bands -->
  <path d="M89 78 Q108 82 127 78" fill="none" stroke="#1a1a1a" stroke-width="1.2"/>
  <path d="M88 88 Q108 93 128 88" fill="none" stroke="#1a1a1a" stroke-width="1.2"/>
  
  <!-- Pouring soap/foam -->
  <path d="M95 95 Q85 105 82 115 Q78 125 85 130 Q92 135 88 140 Q84 145 90 148 Q96 152 92 156" 
        fill="none" stroke="#1a1a1a" stroke-width="2" stroke-linecap="round"/>
  <circle cx="88" cy="120" r="3" fill="#faf9f7" stroke="#1a1a1a" stroke-width="1"/>
  <circle cx="82" cy="128" r="2" fill="#faf9f7" stroke="#1a1a1a" stroke-width="1"/>
  <circle cx="92" cy="135" r="2.5" fill="#faf9f7" stroke="#1a1a1a" stroke-width="1"/>
  <circle cx="86" cy="142" r="2" fill="#faf9f7" stroke="#1a1a1a" stroke-width="1"/>
  <circle cx="94" cy="148" r="1.5" fill="#faf9f7" stroke="#1a1a1a" stroke-width="1"/>
  
  <!-- Soap tray/dish -->
  <path d="M70 145 L65 158 Q100 165 135 158 L130 145 Q100 140 70 145" fill="#faf9f7" stroke="#1a1a1a" stroke-width="1.5"/>
  <path d="M70 145 Q100 150 130 145" fill="none" stroke="#1a1a1a" stroke-width="1"/>
  <!-- Tray details -->
  <line x1="72" y1="148" x2="68" y2="156" class="line" stroke-width="0.6"/>
  <line x1="85" y1="149" x2="82" y2="158" class="line" stroke-width="0.6"/>
  <line x1="100" y1="150" x2="100" y2="160" class="line" stroke-width="0.6"/>
  <line x1="115" y1="149" x2="118" y2="158" class="line" stroke-width="0.6"/>
  <line x1="128" y1="148" x2="132" y2="156" class="line" stroke-width="0.6"/>
  
  <!-- Left laurel branch -->
  <g transform="translate(25, 100)">
    <path d="M25 5 Q20 15 22 25 Q18 35 20 45" fill="none" stroke="#1a1a1a" stroke-width="1.2"/>
    <ellipse cx="18" cy="10" rx="8" ry="4" transform="rotate(-30 18 10)" fill="none" stroke="#1a1a1a" stroke-width="1"/>
    <ellipse cx="15" cy="20" rx="8" ry="4" transform="rotate(-40 15 20)" fill="none" stroke="#1a1a1a" stroke-width="1"/>
    <ellipse cx="14" cy="32" rx="8" ry="4" transform="rotate(-50 14 32)" fill="none" stroke="#1a1a1a" stroke-width="1"/>
    <ellipse cx="15" cy="44" rx="7" ry="3.5" transform="rotate(-60 15 44)" fill="none" stroke="#1a1a1a" stroke-width="1"/>
    <ellipse cx="28" cy="12" rx="7" ry="3.5" transform="rotate(20 28 12)" fill="none" stroke="#1a1a1a" stroke-width="1"/>
    <ellipse cx="26" cy="24" rx="7" ry="3.5" transform="rotate(10 26 24)" fill="none" stroke="#1a1a1a" stroke-width="1"/>
    <ellipse cx="24" cy="36" rx="6" ry="3" transform="rotate(0 24 36)" fill="none" stroke="#1a1a1a" stroke-width="1"/>
  </g>
  
  <!-- Right laurel branch -->
  <g transform="translate(175, 100) scale(-1, 1)">
    <path d="M25 5 Q20 15 22 25 Q18 35 20 45" fill="none" stroke="#1a1a1a" stroke-width="1.2"/>
    <ellipse cx="18" cy="10" rx="8" ry="4" transform="rotate(-30 18 10)" fill="none" stroke="#1a1a1a" stroke-width="1"/>
    <ellipse cx="15" cy="20" rx="8" ry="4" transform="rotate(-40 15 20)" fill="none" stroke="#1a1a1a" stroke-width="1"/>
    <ellipse cx="14" cy="32" rx="8" ry="4" transform="rotate(-50 14 32)" fill="none" stroke="#1a1a1a" stroke-width="1"/>
    <ellipse cx="15" cy="44" rx="7" ry="3.5" transform="rotate(-60 15 44)" fill="none" stroke="#1a1a1a" stroke-width="1"/>
    <ellipse cx="28" cy="12" rx="7" ry="3.5" transform="rotate(20 28 12)" fill="none" stroke="#1a1a1a" stroke-width="1"/>
    <ellipse cx="26" cy="24" rx="7" ry="3.5" transform="rotate(10 26 24)" fill="none" stroke="#1a1a1a" stroke-width="1"/>
    <ellipse cx="24" cy="36" rx="6" ry="3" transform="rotate(0 24 36)" fill="none" stroke="#1a1a1a" stroke-width="1"/>
  </g>
  
  <!-- Cedar tree icon -->
  <g transform="translate(100, 162)">
    <path d="M0 0 L-4 6 L-2 6 L-5 11 L-2 11 L-6 16 L6 16 L2 11 L5 11 L2 6 L4 6 Z" fill="#1a1a1a"/>
    <rect x="-1" y="16" width="2" height="3" fill="#1a1a1a"/>
  </g>
  
  <!-- Khan Shamman script text -->
  <text x="100" y="185" class="script" font-size="22" text-anchor="middle" font-weight="400">Khan Shamman</text>
</svg>
